<svg class="poloto" width="800" height="500" viewBox="0 0 800 500" xmlns="http://www.w3.org/2000/svg"><style>.poloto{stroke-linecap:round;stroke-linejoin:round;font-family:Roboto,sans-serif;font-size:16px;}.poloto_background{fill:AliceBlue;}.poloto_scatter{stroke-width:7}.poloto_tick_line{stroke:gray;stroke-width:0.5}.poloto_line{stroke-width:2}.poloto_text{fill: black;}.poloto_axis_lines{stroke: black;stroke-width:3;fill:none;stroke-dasharray:none}.poloto_title{font-size:24px;dominant-baseline:start;text-anchor:middle;}.poloto_xname{font-size:24px;dominant-baseline:start;text-anchor:middle;}.poloto_yname{font-size:24px;dominant-baseline:start;text-anchor:middle;}.poloto_legend_text{font-size:20px;dominant-baseline:middle;text-anchor:start;}.poloto0stroke{stroke:blue;}.poloto1stroke{stroke:red;}.poloto2stroke{stroke:green;}.poloto3stroke{stroke:gold;}.poloto4stroke{stroke:aqua;}.poloto5stroke{stroke:lime;}.poloto6stroke{stroke:orange;}.poloto7stroke{stroke:chocolate;}.poloto0fill{fill:blue;}.poloto1fill{fill:red;}.poloto2fill{fill:green;}.poloto3fill{fill:gold;}.poloto4fill{fill:aqua;}.poloto5fill{fill:lime;}.poloto6fill{fill:orange;}.poloto7fill{fill:chocolate;}</style><circle  r="1e5" class="poloto_background" /><text  class="poloto_text poloto_legend_text" x="675" y="100" >ch1</text><line  class="poloto_line poloto_legend_icon poloto0stroke poloto0legend" stroke="black" x1="680" x2="730" y1="81.25" y2="81.25" /><path  class="poloto_line poloto0stroke" fill="none" stroke="black" d=" M 150.00 345.89 L 155.05 383.86 L 160.10 384.32 L 165.15 381.48 L 170.20 381.07 L 175.25 386.34 L 180.30 376.67 L 185.35 393.69 L 190.40 386.63 L 195.45 370.15 L 200.51 392.04 L 205.56 392.13 L 210.61 375.68 L 215.66 392.15 L 220.71 393.35 L 225.76 381.62 L 230.81 308.43 L 235.86 347.60 L 240.91 380.47 L 245.96 348.77 L 251.01 375.30 L 256.06 379.55 L 261.11 389.22 L 266.16 384.24 L 271.21 373.66 L 276.26 376.12 L 281.31 388.63 L 286.36 391.22 L 291.41 394.06 L 296.46 399.65 L 301.52 383.14 L 306.57 396.95 L 311.62 397.28 L 316.67 399.17 L 321.72 395.23 L 326.77 394.81 L 331.82 390.17 L 336.87 383.99 L 341.92 393.21 L 346.97 369.51 L 352.02 376.92 L 357.07 389.43 L 362.12 396.65 L 367.17 352.25 L 372.22 390.41 L 377.27 383.59 L 382.32 388.35 L 387.37 365.86 L 392.42 396.73 L 397.47 379.35 L 402.53 374.47 L 407.58 394.44 L 412.63 393.40 L 417.68 351.38 L 422.73 385.71 L 427.78 367.97 L 432.83 391.60 L 437.88 399.26 L 442.93 384.36 L 447.98 347.55 L 453.03 380.86 L 458.08 361.16 L 463.13 385.59 L 468.18 336.54 L 473.23 366.57 L 478.28 355.71 L 483.33 330.31 L 488.38 286.84 L 493.43 364.61 L 498.48 368.34 L 503.54 353.01 L 508.59 374.14 L 513.64 359.01 L 518.69 396.18 L 523.74 396.74 L 528.79 380.93 L 533.84 385.34 L 538.89 380.40 L 543.94 357.59 L 548.99 394.01 L 554.04 382.52 L 559.09 394.70 L 564.14 388.91 L 569.19 387.45 L 574.24 388.29 L 579.29 389.21 L 584.34 335.53 L 589.39 330.91 L 594.44 378.35 L 599.49 385.11 L 604.55 393.29 L 609.60 369.21 L 614.65 371.86 L 619.70 359.16 L 624.75 397.82 L 629.80 397.15 L 634.85 378.15 L 639.90 370.06 L 644.95 375.74 L 650.00 382.58" /><text  class="poloto_text poloto_legend_text" x="675" y="150" >ch2</text><line  class="poloto_line poloto_legend_icon poloto1stroke poloto1legend" stroke="black" x1="680" x2="730" y1="131.25" y2="131.25" /><path  class="poloto_line poloto1stroke" fill="none" stroke="black" d=" M 150.00 386.93 L 155.05 365.86 L 160.10 382.49 L 165.15 386.29 L 170.20 388.98 L 175.25 392.58 L 180.30 391.64 L 185.35 392.86 L 190.40 390.72 L 195.45 391.16 L 200.51 388.92 L 205.56 389.24 L 210.61 386.83 L 215.66 385.28 L 220.71 379.82 L 225.76 367.67 L 230.81 100.00 L 235.86 306.60 L 240.91 372.97 L 245.96 378.47 L 251.01 386.97 L 256.06 385.43 L 261.11 387.65 L 266.16 384.61 L 271.21 380.17 L 276.26 384.76 L 281.31 376.82 L 286.36 375.21 L 291.41 375.25 L 296.46 380.55 L 301.52 385.42 L 306.57 365.32 L 311.62 380.73 L 316.67 389.61 L 321.72 395.72 L 326.77 379.64 L 331.82 379.42 L 336.87 380.37 L 341.92 376.25 L 346.97 392.36 L 352.02 395.94 L 357.07 390.80 L 362.12 378.05 L 367.17 370.74 L 372.22 381.13 L 377.27 389.07 L 382.32 379.10 L 387.37 399.05 L 392.42 379.15 L 397.47 394.30 L 402.53 385.09 L 407.58 390.25 L 412.63 393.36 L 417.68 395.33 L 422.73 366.16 L 427.78 397.00 L 432.83 369.63 L 437.88 394.05 L 442.93 392.16 L 447.98 392.57 L 453.03 380.16 L 458.08 396.73 L 463.13 388.41 L 468.18 375.98 L 473.23 350.21 L 478.28 341.45 L 483.33 394.19 L 488.38 387.87 L 493.43 353.71 L 498.48 371.75 L 503.54 363.25 L 508.59 392.87 L 513.64 360.82 L 518.69 358.23 L 523.74 399.72 L 528.79 387.81 L 533.84 381.20 L 538.89 379.95 L 543.94 397.77 L 548.99 373.82 L 554.04 376.31 L 559.09 374.68 L 564.14 372.87 L 569.19 369.83 L 574.24 386.10 L 579.29 332.51 L 584.34 366.44 L 589.39 348.01 L 594.44 358.92 L 599.49 375.52 L 604.55 364.77 L 609.60 363.18 L 614.65 392.75 L 619.70 350.44 L 624.75 393.78 L 629.80 363.27 L 634.85 383.30 L 639.90 324.46 L 644.95 361.77 L 650.00 313.35" /><text  class="poloto_labels poloto_text poloto_title" x="400" y="37.5" >distances</text><text  class="poloto_labels poloto_text poloto_xname" x="400" y="481.25" >x</text><text  class="poloto_labels poloto_text poloto_yname" transform="rotate(-90,37.5,250)" x="37.5" y="250" >y</text><text  class="poloto_tick_labels poloto_text" dominant-baseline="middle" text-anchor="start" x="150" y="70" ></text><line  class="poloto_axis_lines" stroke="black" x1="150" x2="144" y1="400" y2="400" /><text  class="poloto_tick_labels poloto_text" dominant-baseline="middle" text-anchor="end" x="135" y="400" >0.0</text><line  class="poloto_axis_lines" stroke="black" x1="150" x2="144" y1="316.3694760302327" y2="316.3694760302327" /><text  class="poloto_tick_labels poloto_text" dominant-baseline="middle" text-anchor="end" x="135" y="316.3694760302327" >0.2</text><line  class="poloto_axis_lines" stroke="black" x1="150" x2="144" y1="232.73895206046546" y2="232.73895206046546" /><text  class="poloto_tick_labels poloto_text" dominant-baseline="middle" text-anchor="end" x="135" y="232.73895206046546" >0.4</text><line  class="poloto_axis_lines" stroke="black" x1="150" x2="144" y1="149.10842809069817" y2="149.10842809069817" /><text  class="poloto_tick_labels poloto_text" dominant-baseline="middle" text-anchor="end" x="135" y="149.10842809069817" >0.6</text><text  class="poloto_tick_labels poloto_text" dominant-baseline="middle" text-anchor="start" x="440.00000000000006" y="70" ></text><line  class="poloto_axis_lines" stroke="black" x1="150" x2="150" y1="400" y2="405" /><text  class="poloto_tick_labels poloto_text" dominant-baseline="start" text-anchor="middle" x="150" y="430" >0</text><line  class="poloto_axis_lines" stroke="black" x1="217.32221748101438" x2="217.32221748101438" y1="400" y2="405" /><text  class="poloto_tick_labels poloto_text" dominant-baseline="start" text-anchor="middle" x="217.32221748101438" y="430" >2</text><line  class="poloto_axis_lines" stroke="black" x1="284.64443496202875" x2="284.64443496202875" y1="400" y2="405" /><text  class="poloto_tick_labels poloto_text" dominant-baseline="start" text-anchor="middle" x="284.64443496202875" y="430" >4</text><line  class="poloto_axis_lines" stroke="black" x1="351.9666524430431" x2="351.9666524430431" y1="400" y2="405" /><text  class="poloto_tick_labels poloto_text" dominant-baseline="start" text-anchor="middle" x="351.9666524430431" y="430" >6</text><line  class="poloto_axis_lines" stroke="black" x1="419.28886992405745" x2="419.28886992405745" y1="400" y2="405" /><text  class="poloto_tick_labels poloto_text" dominant-baseline="start" text-anchor="middle" x="419.28886992405745" y="430" >8</text><line  class="poloto_axis_lines" stroke="black" x1="486.6110874050718" x2="486.6110874050718" y1="400" y2="405" /><text  class="poloto_tick_labels poloto_text" dominant-baseline="start" text-anchor="middle" x="486.6110874050718" y="430" >10</text><line  class="poloto_axis_lines" stroke="black" x1="553.9333048860861" x2="553.9333048860861" y1="400" y2="405" /><text  class="poloto_tick_labels poloto_text" dominant-baseline="start" text-anchor="middle" x="553.9333048860861" y="430" >12</text><line  class="poloto_axis_lines" stroke="black" x1="621.2555223671005" x2="621.2555223671005" y1="400" y2="405" /><text  class="poloto_tick_labels poloto_text" dominant-baseline="start" text-anchor="middle" x="621.2555223671005" y="430" >14</text><path  stroke="black" fill="none" class="poloto_axis_lines" style="stroke-dasharray:8.415277185126795;stroke-dashoffset:-0;" d=" M 150 400 L 650 400" /><path  stroke="black" fill="none" class="poloto_axis_lines" style="stroke-dasharray:10.453815496220908;stroke-dashoffset:-0;" d=" M 150 400 L 150 100" /></svg>