<svg class="poloto" width="800" height="500" viewBox="0 0 800 500" xmlns="http://www.w3.org/2000/svg"><style>.poloto{stroke-linecap:round;stroke-linejoin:round;font-family:Roboto,sans-serif;font-size:16px;}.poloto_background{fill:AliceBlue;}.poloto_scatter{stroke-width:7}.poloto_tick_line{stroke:gray;stroke-width:0.5}.poloto_line{stroke-width:2}.poloto_text{fill: black;}.poloto_axis_lines{stroke: black;stroke-width:3;fill:none;stroke-dasharray:none}.poloto_title{font-size:24px;dominant-baseline:start;text-anchor:middle;}.poloto_xname{font-size:24px;dominant-baseline:start;text-anchor:middle;}.poloto_yname{font-size:24px;dominant-baseline:start;text-anchor:middle;}.poloto_legend_text{font-size:20px;dominant-baseline:middle;text-anchor:start;}.poloto0stroke{stroke:blue;}.poloto1stroke{stroke:red;}.poloto2stroke{stroke:green;}.poloto3stroke{stroke:gold;}.poloto4stroke{stroke:aqua;}.poloto5stroke{stroke:lime;}.poloto6stroke{stroke:orange;}.poloto7stroke{stroke:chocolate;}.poloto0fill{fill:blue;}.poloto1fill{fill:red;}.poloto2fill{fill:green;}.poloto3fill{fill:gold;}.poloto4fill{fill:aqua;}.poloto5fill{fill:lime;}.poloto6fill{fill:orange;}.poloto7fill{fill:chocolate;}</style><circle  r="1e5" class="poloto_background" /><text  class="poloto_text poloto_legend_text" x="675" y="100" >ch1</text><line  class="poloto_line poloto_legend_icon poloto0stroke poloto0legend" stroke="black" x1="680" x2="730" y1="81.25" y2="81.25" /><path  class="poloto_line poloto0stroke" fill="none" stroke="black" d=" M 150.00 145.03 L 155.05 147.31 L 160.10 135.71 L 165.15 133.43 L 170.20 134.43 L 175.25 135.99 L 180.30 137.66 L 185.35 139.29 L 190.40 140.50 L 195.45 141.56 L 200.51 142.72 L 205.56 143.47 L 210.61 144.05 L 215.66 144.81 L 220.71 145.33 L 225.76 145.66 L 230.81 146.50 L 235.86 145.81 L 240.91 146.09 L 245.96 146.37 L 251.01 146.65 L 256.06 146.69 L 261.11 146.61 L 266.16 146.57 L 271.21 146.68 L 276.26 146.84 L 281.31 147.20 L 286.36 147.71 L 291.41 147.60 L 296.46 147.00 L 301.52 146.91 L 306.57 146.67 L 311.62 146.48 L 316.67 146.43 L 321.72 146.32 L 326.77 146.17 L 331.82 146.20 L 336.87 145.90 L 341.92 145.73 L 346.97 145.98 L 352.02 145.69 L 357.07 145.76 L 362.12 145.57 L 367.17 145.86 L 372.22 145.46 L 377.27 145.26 L 382.32 144.97 L 387.37 145.27 L 392.42 144.93 L 397.47 145.15 L 402.53 145.18 L 407.58 144.90 L 412.63 145.19 L 417.68 145.28 L 422.73 145.07 L 427.78 145.16 L 432.83 145.10 L 437.88 144.83 L 442.93 144.97 L 447.98 144.99 L 453.03 145.07 L 458.08 145.15 L 463.13 144.90 L 468.18 145.23 L 473.23 145.34 L 478.28 145.12 L 483.33 144.80 L 488.38 144.72 L 493.43 145.41 L 498.48 144.85 L 503.54 145.34 L 508.59 144.80 L 513.64 145.38 L 518.69 145.48 L 523.74 145.76 L 528.79 145.73 L 533.84 145.80 L 538.89 145.82 L 543.94 145.93 L 548.99 146.14 L 554.04 146.22 L 559.09 146.38 L 564.14 146.57 L 569.19 146.58 L 574.24 146.98 L 579.29 146.89 L 584.34 147.43 L 589.39 147.45 L 594.44 147.19 L 599.49 147.29 L 604.55 147.45 L 609.60 147.85 L 614.65 148.27 L 619.70 147.93 L 624.75 148.57 L 629.80 148.59 L 634.85 148.47 L 639.90 148.66 L 644.95 148.99 L 650.00 149.16" /><text  class="poloto_text poloto_legend_text" x="675" y="150" >ch2</text><line  class="poloto_line poloto_legend_icon poloto1stroke poloto1legend" stroke="black" x1="680" x2="730" y1="131.25" y2="131.25" /><path  class="poloto_line poloto1stroke" fill="none" stroke="black" d=" M 150.00 125.47 L 155.05 117.72 L 160.10 103.89 L 165.15 100.00 L 170.20 100.00 L 175.25 101.33 L 180.30 103.13 L 185.35 104.98 L 190.40 106.69 L 195.45 108.22 L 200.51 109.64 L 205.56 110.93 L 210.61 112.11 L 215.66 113.18 L 220.71 114.21 L 225.76 115.18 L 230.81 117.55 L 235.86 116.07 L 240.91 117.21 L 245.96 117.95 L 251.01 118.65 L 256.06 119.30 L 261.11 119.95 L 266.16 120.58 L 271.21 121.13 L 276.26 121.74 L 281.31 122.29 L 286.36 122.84 L 291.41 123.47 L 296.46 123.98 L 301.52 124.46 L 306.57 124.96 L 311.62 125.47 L 316.67 126.07 L 321.72 126.61 L 326.77 127.04 L 331.82 127.55 L 336.87 128.05 L 341.92 128.56 L 346.97 129.23 L 352.02 129.69 L 357.07 130.36 L 362.12 130.80 L 367.17 131.23 L 372.22 131.85 L 377.27 132.38 L 382.32 132.65 L 387.37 133.46 L 392.42 133.89 L 397.47 134.56 L 402.53 135.05 L 407.58 135.50 L 412.63 136.10 L 417.68 136.60 L 422.73 136.95 L 427.78 137.45 L 432.83 137.93 L 437.88 138.30 L 442.93 138.63 L 447.98 138.78 L 453.03 139.11 L 458.08 139.45 L 463.13 139.59 L 468.18 140.00 L 473.23 140.19 L 478.28 140.08 L 483.33 140.42 L 488.38 140.41 L 493.43 140.64 L 498.48 140.47 L 503.54 140.47 L 508.59 140.56 L 513.64 140.53 L 518.69 140.73 L 523.74 140.31 L 528.79 140.10 L 533.84 140.06 L 538.89 140.21 L 543.94 140.00 L 548.99 139.81 L 554.04 139.52 L 559.09 139.44 L 564.14 139.23 L 569.19 139.38 L 574.24 139.17 L 579.29 139.40 L 584.34 138.56 L 589.39 139.01 L 594.44 138.94 L 599.49 138.67 L 604.55 138.60 L 609.60 138.25 L 614.65 138.35 L 619.70 138.63 L 624.75 138.28 L 629.80 138.48 L 634.85 138.02 L 639.90 138.64 L 644.95 138.65 L 650.00 138.36" /><text  class="poloto_labels poloto_text poloto_title" x="400" y="37.5" >distances</text><text  class="poloto_labels poloto_text poloto_xname" x="400" y="481.25" >x</text><text  class="poloto_labels poloto_text poloto_yname" transform="rotate(-90,37.5,250)" x="37.5" y="250" >y</text><text  class="poloto_tick_labels poloto_text" dominant-baseline="middle" text-anchor="start" x="150" y="70" ></text><line  class="poloto_axis_lines" stroke="black" x1="150" x2="144" y1="400" y2="400" /><text  class="poloto_tick_labels poloto_text" dominant-baseline="middle" text-anchor="end" x="135" y="400" >0</text><line  class="poloto_axis_lines" stroke="black" x1="150" x2="144" y1="352.33012338997133" y2="352.33012338997133" /><text  class="poloto_tick_labels poloto_text" dominant-baseline="middle" text-anchor="end" x="135" y="352.33012338997133" >20</text><line  class="poloto_axis_lines" stroke="black" x1="150" x2="144" y1="304.66024677994267" y2="304.66024677994267" /><text  class="poloto_tick_labels poloto_text" dominant-baseline="middle" text-anchor="end" x="135" y="304.66024677994267" >40</text><line  class="poloto_axis_lines" stroke="black" x1="150" x2="144" y1="256.99037016991406" y2="256.99037016991406" /><text  class="poloto_tick_labels poloto_text" dominant-baseline="middle" text-anchor="end" x="135" y="256.99037016991406" >60</text><line  class="poloto_axis_lines" stroke="black" x1="150" x2="144" y1="209.32049355988534" y2="209.32049355988534" /><text  class="poloto_tick_labels poloto_text" dominant-baseline="middle" text-anchor="end" x="135" y="209.32049355988534" >80</text><line  class="poloto_axis_lines" stroke="black" x1="150" x2="144" y1="161.65061694985673" y2="161.65061694985673" /><text  class="poloto_tick_labels poloto_text" dominant-baseline="middle" text-anchor="end" x="135" y="161.65061694985673" >100</text><line  class="poloto_axis_lines" stroke="black" x1="150" x2="144" y1="113.98074033982806" y2="113.98074033982806" /><text  class="poloto_tick_labels poloto_text" dominant-baseline="middle" text-anchor="end" x="135" y="113.98074033982806" >120</text><text  class="poloto_tick_labels poloto_text" dominant-baseline="middle" text-anchor="start" x="440.00000000000006" y="70" ></text><line  class="poloto_axis_lines" stroke="black" x1="150" x2="150" y1="400" y2="405" /><text  class="poloto_tick_labels poloto_text" dominant-baseline="start" text-anchor="middle" x="150" y="430" >0</text><line  class="poloto_axis_lines" stroke="black" x1="217.32221748101438" x2="217.32221748101438" y1="400" y2="405" /><text  class="poloto_tick_labels poloto_text" dominant-baseline="start" text-anchor="middle" x="217.32221748101438" y="430" >2</text><line  class="poloto_axis_lines" stroke="black" x1="284.64443496202875" x2="284.64443496202875" y1="400" y2="405" /><text  class="poloto_tick_labels poloto_text" dominant-baseline="start" text-anchor="middle" x="284.64443496202875" y="430" >4</text><line  class="poloto_axis_lines" stroke="black" x1="351.9666524430431" x2="351.9666524430431" y1="400" y2="405" /><text  class="poloto_tick_labels poloto_text" dominant-baseline="start" text-anchor="middle" x="351.9666524430431" y="430" >6</text><line  class="poloto_axis_lines" stroke="black" x1="419.28886992405745" x2="419.28886992405745" y1="400" y2="405" /><text  class="poloto_tick_labels poloto_text" dominant-baseline="start" text-anchor="middle" x="419.28886992405745" y="430" >8</text><line  class="poloto_axis_lines" stroke="black" x1="486.6110874050718" x2="486.6110874050718" y1="400" y2="405" /><text  class="poloto_tick_labels poloto_text" dominant-baseline="start" text-anchor="middle" x="486.6110874050718" y="430" >10</text><line  class="poloto_axis_lines" stroke="black" x1="553.9333048860861" x2="553.9333048860861" y1="400" y2="405" /><text  class="poloto_tick_labels poloto_text" dominant-baseline="start" text-anchor="middle" x="553.9333048860861" y="430" >12</text><line  class="poloto_axis_lines" stroke="black" x1="621.2555223671005" x2="621.2555223671005" y1="400" y2="405" /><text  class="poloto_tick_labels poloto_text" dominant-baseline="start" text-anchor="middle" x="621.2555223671005" y="430" >14</text><path  stroke="black" fill="none" class="poloto_axis_lines" style="stroke-dasharray:8.415277185126795;stroke-dashoffset:-0;" d=" M 150 400 L 650 400" /><path  stroke="black" fill="none" class="poloto_axis_lines" style="stroke-dasharray:11.917469152507165;stroke-dashoffset:-0;" d=" M 150 400 L 150 100" /></svg>