<svg class="poloto" width="800" height="500" viewBox="0 0 800 500" xmlns="http://www.w3.org/2000/svg"><style>.poloto{stroke-linecap:round;stroke-linejoin:round;font-family:Roboto,sans-serif;font-size:16px;}.poloto_background{fill:AliceBlue;}.poloto_scatter{stroke-width:7}.poloto_tick_line{stroke:gray;stroke-width:0.5}.poloto_line{stroke-width:2}.poloto_text{fill: black;}.poloto_axis_lines{stroke: black;stroke-width:3;fill:none;stroke-dasharray:none}.poloto_title{font-size:24px;dominant-baseline:start;text-anchor:middle;}.poloto_xname{font-size:24px;dominant-baseline:start;text-anchor:middle;}.poloto_yname{font-size:24px;dominant-baseline:start;text-anchor:middle;}.poloto_legend_text{font-size:20px;dominant-baseline:middle;text-anchor:start;}.poloto0stroke{stroke:blue;}.poloto1stroke{stroke:red;}.poloto2stroke{stroke:green;}.poloto3stroke{stroke:gold;}.poloto4stroke{stroke:aqua;}.poloto5stroke{stroke:lime;}.poloto6stroke{stroke:orange;}.poloto7stroke{stroke:chocolate;}.poloto0fill{fill:blue;}.poloto1fill{fill:red;}.poloto2fill{fill:green;}.poloto3fill{fill:gold;}.poloto4fill{fill:aqua;}.poloto5fill{fill:lime;}.poloto6fill{fill:orange;}.poloto7fill{fill:chocolate;}</style><circle  r="1e5" class="poloto_background" /><text  class="poloto_text poloto_legend_text" x="675" y="100" >ch1</text><line  class="poloto_line poloto_legend_icon poloto0stroke poloto0legend" stroke="black" x1="680" x2="730" y1="81.25" y2="81.25" /><path  class="poloto_line poloto0stroke" fill="none" stroke="black" d=" M 150.00 144.78 L 155.05 147.47 L 160.10 135.87 L 165.15 133.61 L 170.20 134.61 L 175.25 136.14 L 180.30 137.86 L 185.35 139.39 L 190.40 140.64 L 195.45 141.79 L 200.51 142.83 L 205.56 143.58 L 210.61 144.25 L 215.66 144.83 L 220.71 145.36 L 225.76 145.62 L 230.81 146.04 L 235.86 146.17 L 240.91 146.26 L 245.96 146.73 L 251.01 146.58 L 256.06 146.87 L 261.11 146.61 L 266.16 146.73 L 271.21 146.90 L 276.26 146.77 L 281.31 147.20 L 286.36 147.83 L 291.41 147.63 L 296.46 147.06 L 301.52 146.87 L 306.57 146.72 L 311.62 146.53 L 316.67 146.49 L 321.72 146.35 L 326.77 146.20 L 331.82 146.21 L 336.87 145.88 L 341.92 145.75 L 346.97 145.87 L 352.02 145.62 L 357.07 145.76 L 362.12 145.66 L 367.17 145.65 L 372.22 145.47 L 377.27 145.23 L 382.32 144.96 L 387.37 145.14 L 392.42 145.01 L 397.47 145.10 L 402.53 145.10 L 407.58 144.99 L 412.63 145.22 L 417.68 145.06 L 422.73 145.05 L 427.78 145.05 L 432.83 145.11 L 437.88 144.90 L 442.93 144.95 L 447.98 144.75 L 453.03 145.03 L 458.08 144.99 L 463.13 145.05 L 468.18 144.93 L 473.23 145.22 L 478.28 145.44 L 483.33 145.26 L 488.38 145.43 L 493.43 145.27 L 498.48 145.09 L 503.54 145.14 L 508.59 145.02 L 513.64 145.68 L 518.69 145.57 L 523.74 145.81 L 528.79 145.91 L 533.84 145.95 L 538.89 145.99 L 543.94 146.23 L 548.99 146.24 L 554.04 146.38 L 559.09 146.48 L 564.14 146.70 L 569.19 146.71 L 574.24 146.97 L 579.29 147.01 L 584.34 147.13 L 589.39 147.12 L 594.44 147.38 L 599.49 147.44 L 604.55 147.56 L 609.60 148.08 L 614.65 148.17 L 619.70 148.23 L 624.75 148.65 L 629.80 148.64 L 634.85 148.66 L 639.90 148.89 L 644.95 149.19 L 650.00 149.12" /><text  class="poloto_text poloto_legend_text" x="675" y="150" >ch2</text><line  class="poloto_line poloto_legend_icon poloto1stroke poloto1legend" stroke="black" x1="680" x2="730" y1="131.25" y2="131.25" /><path  class="poloto_line poloto1stroke" fill="none" stroke="black" d=" M 150.00 125.62 L 155.05 117.60 L 160.10 103.86 L 165.15 100.00 L 170.20 100.01 L 175.25 101.37 L 180.30 103.16 L 185.35 105.02 L 190.40 106.71 L 195.45 108.25 L 200.51 109.65 L 205.56 110.94 L 210.61 112.11 L 215.66 113.17 L 220.71 114.16 L 225.76 115.07 L 230.81 115.92 L 235.86 116.67 L 240.91 117.44 L 245.96 118.14 L 251.01 118.79 L 256.06 119.45 L 261.11 120.09 L 266.16 120.73 L 271.21 121.31 L 276.26 121.90 L 281.31 122.49 L 286.36 123.05 L 291.41 123.68 L 296.46 124.17 L 301.52 124.61 L 306.57 125.23 L 311.62 125.65 L 316.67 126.20 L 321.72 126.70 L 326.77 127.22 L 331.82 127.73 L 336.87 128.23 L 341.92 128.77 L 346.97 129.34 L 352.02 129.78 L 357.07 130.37 L 362.12 131.00 L 367.17 131.47 L 372.22 132.02 L 377.27 132.39 L 382.32 132.84 L 387.37 133.52 L 392.42 134.08 L 397.47 134.59 L 402.53 135.21 L 407.58 135.62 L 412.63 136.20 L 417.68 136.69 L 422.73 137.21 L 427.78 137.50 L 432.83 137.82 L 437.88 138.40 L 442.93 138.65 L 447.98 138.89 L 453.03 139.29 L 458.08 139.53 L 463.13 139.72 L 468.18 139.93 L 473.23 139.97 L 478.28 140.47 L 483.33 140.52 L 488.38 140.54 L 493.43 140.44 L 498.48 140.70 L 503.54 140.32 L 508.59 140.67 L 513.64 140.38 L 518.69 140.55 L 523.74 140.38 L 528.79 140.23 L 533.84 140.24 L 538.89 140.17 L 543.94 140.08 L 548.99 140.02 L 554.04 139.72 L 559.09 139.65 L 564.14 139.45 L 569.19 139.28 L 574.24 139.16 L 579.29 139.08 L 584.34 138.82 L 589.39 138.78 L 594.44 138.77 L 599.49 138.87 L 604.55 138.86 L 609.60 138.52 L 614.65 138.45 L 619.70 138.41 L 624.75 138.31 L 629.80 138.34 L 634.85 138.18 L 639.90 138.28 L 644.95 138.50 L 650.00 138.92" /><text  class="poloto_labels poloto_text poloto_title" x="400" y="37.5" >distances</text><text  class="poloto_labels poloto_text poloto_xname" x="400" y="481.25" >x</text><text  class="poloto_labels poloto_text poloto_yname" transform="rotate(-90,37.5,250)" x="37.5" y="250" >y</text><text  class="poloto_tick_labels poloto_text" dominant-baseline="middle" text-anchor="start" x="150" y="70" ></text><line  class="poloto_axis_lines" stroke="black" x1="150" x2="144" y1="400" y2="400" /><text  class="poloto_tick_labels poloto_text" dominant-baseline="middle" text-anchor="end" x="135" y="400" >0</text><line  class="poloto_axis_lines" stroke="black" x1="150" x2="144" y1="352.3421885578356" y2="352.3421885578356" /><text  class="poloto_tick_labels poloto_text" dominant-baseline="middle" text-anchor="end" x="135" y="352.3421885578356" >20</text><line  class="poloto_axis_lines" stroke="black" x1="150" x2="144" y1="304.68437711567117" y2="304.68437711567117" /><text  class="poloto_tick_labels poloto_text" dominant-baseline="middle" text-anchor="end" x="135" y="304.68437711567117" >40</text><line  class="poloto_axis_lines" stroke="black" x1="150" x2="144" y1="257.02656567350675" y2="257.02656567350675" /><text  class="poloto_tick_labels poloto_text" dominant-baseline="middle" text-anchor="end" x="135" y="257.02656567350675" >60</text><line  class="poloto_axis_lines" stroke="black" x1="150" x2="144" y1="209.36875423134234" y2="209.36875423134234" /><text  class="poloto_tick_labels poloto_text" dominant-baseline="middle" text-anchor="end" x="135" y="209.36875423134234" >80</text><line  class="poloto_axis_lines" stroke="black" x1="150" x2="144" y1="161.71094278917792" y2="161.71094278917792" /><text  class="poloto_tick_labels poloto_text" dominant-baseline="middle" text-anchor="end" x="135" y="161.71094278917792" >100</text><line  class="poloto_axis_lines" stroke="black" x1="150" x2="144" y1="114.0531313470135" y2="114.0531313470135" /><text  class="poloto_tick_labels poloto_text" dominant-baseline="middle" text-anchor="end" x="135" y="114.0531313470135" >120</text><text  class="poloto_tick_labels poloto_text" dominant-baseline="middle" text-anchor="start" x="440.00000000000006" y="70" ></text><line  class="poloto_axis_lines" stroke="black" x1="150" x2="150" y1="400" y2="405" /><text  class="poloto_tick_labels poloto_text" dominant-baseline="start" text-anchor="middle" x="150" y="430" >0</text><line  class="poloto_axis_lines" stroke="black" x1="217.32221748101438" x2="217.32221748101438" y1="400" y2="405" /><text  class="poloto_tick_labels poloto_text" dominant-baseline="start" text-anchor="middle" x="217.32221748101438" y="430" >2</text><line  class="poloto_axis_lines" stroke="black" x1="284.64443496202875" x2="284.64443496202875" y1="400" y2="405" /><text  class="poloto_tick_labels poloto_text" dominant-baseline="start" text-anchor="middle" x="284.64443496202875" y="430" >4</text><line  class="poloto_axis_lines" stroke="black" x1="351.9666524430431" x2="351.9666524430431" y1="400" y2="405" /><text  class="poloto_tick_labels poloto_text" dominant-baseline="start" text-anchor="middle" x="351.9666524430431" y="430" >6</text><line  class="poloto_axis_lines" stroke="black" x1="419.28886992405745" x2="419.28886992405745" y1="400" y2="405" /><text  class="poloto_tick_labels poloto_text" dominant-baseline="start" text-anchor="middle" x="419.28886992405745" y="430" >8</text><line  class="poloto_axis_lines" stroke="black" x1="486.6110874050718" x2="486.6110874050718" y1="400" y2="405" /><text  class="poloto_tick_labels poloto_text" dominant-baseline="start" text-anchor="middle" x="486.6110874050718" y="430" >10</text><line  class="poloto_axis_lines" stroke="black" x1="553.9333048860861" x2="553.9333048860861" y1="400" y2="405" /><text  class="poloto_tick_labels poloto_text" dominant-baseline="start" text-anchor="middle" x="553.9333048860861" y="430" >12</text><line  class="poloto_axis_lines" stroke="black" x1="621.2555223671005" x2="621.2555223671005" y1="400" y2="405" /><text  class="poloto_tick_labels poloto_text" dominant-baseline="start" text-anchor="middle" x="621.2555223671005" y="430" >14</text><path  stroke="black" fill="none" class="poloto_axis_lines" style="stroke-dasharray:8.415277185126795;stroke-dashoffset:-0;" d=" M 150 400 L 650 400" /><path  stroke="black" fill="none" class="poloto_axis_lines" style="stroke-dasharray:11.914452860541104;stroke-dashoffset:-0;" d=" M 150 400 L 150 100" /></svg>